<?xml version="1.0" encoding="iso-8859-1"?>
<!-- Generator: Adobe Illustrator 19.0.0, SVG Export Plug-In . SVG Version: 6.00 Build 0)  -->
<svg xmlns="http://www.w3.org/2000/svg" xmlns:xlink="http://www.w3.org/1999/xlink" version="1.1" id="Capa_1" x="0px" y="0px" viewBox="0 0 512 512" style="enable-background:new 0 0 512 512;" xml:space="preserve" width="512px" height="512px">
<g>
	<g>
		<path d="M464.631,403.122C474.767,392.374,481,377.905,481,362c0-33.084-26.916-60-60-60s-60,26.916-60,60    c0,15.965,6.28,30.482,16.484,41.243c-9.767,5.418-18.426,12.599-25.543,21.112c-9.648-21.621-26.396-39.401-47.264-50.367    C320.77,360.222,331,339.789,331,317c0-41.355-33.645-75-75-75c-41.355,0-75,33.645-75,75c0,22.789,10.23,43.222,26.323,56.988    c-20.868,10.965-37.616,28.746-47.264,50.367c-7.118-8.513-15.776-15.693-25.543-21.112C144.72,392.482,151,377.965,151,362    c0-33.084-26.916-60-60-60s-60,26.916-60,60c0,15.905,6.233,30.374,16.369,41.122C19.503,418.351,0,447.656,0,482v15    c0,8.284,6.716,15,15,15c5.697,0,472.275,0,482,0c8.284,0,15-6.716,15-15v-15C512,448.138,492.931,418.588,464.631,403.122z     M91,332c16.542,0,30,13.458,30,30s-13.458,30-30,30s-30-13.458-30-30S74.458,332,91,332z M30,482c0-33.084,27.364-60,61-60    c33.084,0,60,26.916,60,60H30z M256,272c24.813,0,45,20.187,45,45s-20.187,45-45,45s-45-20.187-45-45S231.187,272,256,272z     M331,482H181v-15c0-41.355,33.645-75,75-75s75,33.645,75,75V482z M421,332c16.542,0,30,13.458,30,30s-13.458,30-30,30    s-30-13.458-30-30S404.458,332,421,332z M361,482c0-33.084,26.916-60,60-60c33.636,0,61,26.916,61,60H361z" fill="#FFFFFF"/>
	</g>
</g>
<g>
	<g>
		<path d="M376,60H136c-8.284,0-15,6.716-15,15s6.716,15,15,15h240c8.284,0,15-6.716,15-15S384.284,60,376,60z" fill="#FFFFFF"/>
	</g>
</g>
<g>
	<g>
		<path d="M406,0H106C64.645,0,31,33.645,31,75c0,36.219,25.809,66.524,60,73.493V197c0,6.112,3.708,11.612,9.374,13.905    c5.666,2.292,12.155,0.918,16.405-3.473L172.358,150h35.469l35.568,55.132c2.763,4.282,7.51,6.868,12.605,6.868    c5.095,0,9.842-2.586,12.604-6.868L304.173,150h35.469l55.579,57.431c4.249,4.391,10.739,5.766,16.405,3.473    C417.292,208.612,421,203.112,421,197v-48.507c34.191-6.969,60-37.275,60-73.493C481,33.645,447.355,0,406,0z M406,120    c-8.284,0-15,6.716-15,15v24.93l-34.221-35.362C353.953,121.649,350.063,120,346,120h-50c-5.095,0-9.842,2.587-12.604,6.868    L256,169.331l-27.395-42.463C225.843,122.587,221.096,120,216,120h-50c-4.063,0-7.953,1.649-10.779,4.569L121,159.93V135    c0-8.284-6.716-15-15-15c-24.813,0-45-20.187-45-45s20.187-45,45-45h300c24.813,0,45,20.187,45,45S430.813,120,406,120z" fill="#FFFFFF"/>
	</g>
</g>
<g>
</g>
<g>
</g>
<g>
</g>
<g>
</g>
<g>
</g>
<g>
</g>
<g>
</g>
<g>
</g>
<g>
</g>
<g>
</g>
<g>
</g>
<g>
</g>
<g>
</g>
<g>
</g>
<g>
</g>
</svg>
