<?xml version="1.0" encoding="iso-8859-1"?>
<!-- Generator: Adobe Illustrator 18.1.1, SVG Export Plug-In . SVG Version: 6.00 Build 0)  -->
<svg xmlns="http://www.w3.org/2000/svg" xmlns:xlink="http://www.w3.org/1999/xlink" version="1.1" id="Capa_1" x="0px" y="0px" viewBox="0 0 32 32" style="enable-background:new 0 0 32 32;" xml:space="preserve" width="512px" height="512px">
<g>
	<g>
		<path d="M28,7V3H0v22c0,0,0,4,4,4h25c0,0,3-0.062,3-4V7H28z M4,27c-2,0-2-2-2-2V5h24v20    c0,0.921,0.284,1.559,0.676,2H4z" fill="#FFFFFF"/>
		<rect x="4" y="9" width="20" height="2" fill="#FFFFFF"/>
		<rect x="15" y="21" width="7" height="2" fill="#FFFFFF"/>
		<rect x="15" y="17" width="9" height="2" fill="#FFFFFF"/>
		<rect x="15" y="13" width="9" height="2" fill="#FFFFFF"/>
		<rect x="4" y="13" width="9" height="10" fill="#FFFFFF"/>
	</g>
</g>
<g>
</g>
<g>
</g>
<g>
</g>
<g>
</g>
<g>
</g>
<g>
</g>
<g>
</g>
<g>
</g>
<g>
</g>
<g>
</g>
<g>
</g>
<g>
</g>
<g>
</g>
<g>
</g>
<g>
</g>
</svg>
