<?xml version="1.0" encoding="iso-8859-1"?>
<!-- Generator: Adobe Illustrator 19.0.0, SVG Export Plug-In . SVG Version: 6.00 Build 0)  -->
<svg xmlns="http://www.w3.org/2000/svg" xmlns:xlink="http://www.w3.org/1999/xlink" version="1.1" id="Capa_1" x="0px" y="0px" viewBox="0 0 512 512" style="enable-background:new 0 0 512 512;" xml:space="preserve" width="512px" height="512px">
<g>
	<g>
		<path d="M500.539,211.423l-25.45-6.179c-5.596-24.372-15.078-47.304-28.282-68.396l12.975-21.624    c3.541-5.902,2.611-13.458-2.256-18.324L415.1,54.475c-4.867-4.867-12.423-5.797-18.323-2.256L375.15,65.193    c-21.091-13.204-44.022-22.686-68.396-28.282l-6.179-25.45C298.943,4.735,292.921,0,286,0h-60    c-6.921,0-12.943,4.735-14.576,11.461l-6.179,25.45c-24.373,5.597-47.305,15.079-68.396,28.282l-21.626-12.975    c-5.901-3.54-13.456-2.611-18.323,2.256L54.475,96.9c-4.867,4.867-5.797,12.422-2.256,18.324l12.975,21.624    C51.99,157.94,42.507,180.873,36.91,205.245l-25.449,6.179C4.735,213.057,0,219.079,0,226v60c0,6.921,4.735,12.943,11.461,14.577    l25.449,6.179c5.598,24.373,15.08,47.304,28.283,68.395l-12.975,21.623c-3.541,5.902-2.611,13.457,2.256,18.324L96.9,457.525    c4.866,4.868,12.422,5.797,18.324,2.256l21.623-12.974c21.093,13.203,44.025,22.686,68.397,28.282l6.179,25.45    C213.057,507.265,219.079,512,226,512h60c6.921,0,12.943-4.735,14.576-11.461l6.179-25.45    c24.372-5.596,47.305-15.079,68.397-28.282l21.623,12.974c5.901,3.542,13.457,2.611,18.324-2.256l42.426-42.427    c4.867-4.867,5.797-12.422,2.256-18.324l-12.975-21.623c13.203-21.091,22.686-44.022,28.282-68.395l25.45-6.179    C507.265,298.943,512,292.921,512,286v-60C512,219.079,507.265,213.057,500.539,211.423z M482,274.206l-23.209,5.635    c-5.744,1.395-10.135,6.034-11.21,11.846c-5.003,27.023-15.379,52.125-30.84,74.609c-3.329,4.841-3.525,11.18-0.503,16.217    l11.793,19.653l-25.863,25.864l-19.653-11.792c-5.039-3.022-11.376-2.826-16.217,0.502c-22.485,15.462-47.589,25.838-74.611,30.84    c-5.813,1.076-10.451,5.466-11.846,11.21L274.206,482h-36.412l-5.635-23.208c-1.395-5.745-6.033-10.134-11.846-11.21    c-27.022-5.002-52.126-15.378-74.611-30.84c-4.841-3.328-11.177-3.526-16.217-0.502l-19.653,11.792l-25.863-25.864l11.793-19.653    c3.022-5.038,2.826-11.376-0.503-16.217c-15.461-22.483-25.837-47.585-30.841-74.609c-1.076-5.813-5.466-10.451-11.21-11.846    L30,274.206v-36.412l23.208-5.635c5.744-1.395,10.134-6.034,11.21-11.846c5.003-27.022,15.38-52.125,30.842-74.611    c3.328-4.841,3.524-11.179,0.502-16.217l-11.793-19.653l25.863-25.863l19.656,11.793c5.039,3.023,11.377,2.826,16.217-0.503    c22.482-15.461,47.585-25.837,74.608-30.84c5.813-1.076,10.451-5.466,11.846-11.21L237.794,30h36.412l5.635,23.208    c1.395,5.745,6.033,10.134,11.846,11.21c27.023,5.002,52.126,15.378,74.608,30.84c4.842,3.329,11.18,3.526,16.217,0.503    l19.656-11.793l25.863,25.863l-11.793,19.653c-3.022,5.038-2.826,11.376,0.502,16.217c15.463,22.486,25.839,47.589,30.841,74.61    c1.075,5.813,5.465,10.452,11.21,11.847L482,237.794V274.206z" fill="#FFFFFF"/>
	</g>
</g>
<g>
	<g>
		<path d="M256,91c-90.981,0-165,74.019-165,165s74.019,165,165,165s165-74.019,165-165S346.981,91,256,91z M256,391    c-74.439,0-135-60.561-135-135s60.561-135,135-135s135,60.561,135,135S330.439,391,256,391z" fill="#FFFFFF"/>
	</g>
</g>
<g>
	<g>
		<path d="M293.382,221.022C298.19,213.862,301,205.254,301,196c0-24.813-20.187-45-45-45s-45,20.187-45,45    c0,9.254,2.81,17.862,7.618,25.022C196.159,233.994,181,258.252,181,286v30c0,8.284,6.716,15,15,15h120c8.284,0,15-6.716,15-15    v-30C331,258.252,315.841,233.994,293.382,221.022z M256,181c8.271,0,15,6.729,15,15s-6.729,15-15,15s-15-6.729-15-15    S247.729,181,256,181z M301,301h-90v-15c0-24.813,20.187-45,45-45s45,20.187,45,45V301z" fill="#FFFFFF"/>
	</g>
</g>
<g>
</g>
<g>
</g>
<g>
</g>
<g>
</g>
<g>
</g>
<g>
</g>
<g>
</g>
<g>
</g>
<g>
</g>
<g>
</g>
<g>
</g>
<g>
</g>
<g>
</g>
<g>
</g>
<g>
</g>
</svg>
