<?xml version="1.0" encoding="iso-8859-1"?>
<!-- Generator: Adobe Illustrator 19.0.0, SVG Export Plug-In . SVG Version: 6.00 Build 0)  -->
<svg xmlns="http://www.w3.org/2000/svg" xmlns:xlink="http://www.w3.org/1999/xlink" version="1.1" id="Layer_1" x="0px" y="0px" viewBox="0 0 475.1 475.1" style="enable-background:new 0 0 475.1 475.1;" xml:space="preserve" width="512px" height="512px">
<g transform="translate(0 -540.36)">
	<g>
		<g>
			<path d="M183.65,938.36c-4.1,0-7.5,3.4-7.5,7.5v54.6H71.65v-54.6c0-4.1-3.4-7.5-7.5-7.5c-4.1,0-7.5,3.4-7.5,7.5v62.1     c0,4.1,3.4,7.5,7.5,7.5h119.5c4.1,0,7.5-3.4,7.5-7.5v-62.1C191.15,941.76,187.75,938.36,183.65,938.36z" fill="#FFFFFF"/>
			<path d="M93.15,912.56c0,17,13.8,30.8,30.8,30.8c17.2,0,30.7-13.6,30.8-30.8c0-17.3-13.5-30.8-30.8-30.8     C106.95,881.76,93.15,895.56,93.15,912.56z M139.75,912.56c0,9-6.8,15.8-15.8,15.8c-8.7,0-15.8-7.1-15.8-15.8s7.1-15.8,15.8-15.8     C132.85,896.76,139.75,903.56,139.75,912.56z" fill="#FFFFFF"/>
			<path d="M410.95,938.36c-4.1,0-7.5,3.4-7.5,7.5v54.6h-103.7v-54.6c0-4.1-3.4-7.5-7.5-7.5c-4.1,0-7.5,3.4-7.5,7.5v62.1     c0,4.1,3.4,7.5,7.5,7.5h118.7c4.1,0,7.5-3.4,7.5-7.5v-62.1C418.45,941.76,415.05,938.36,410.95,938.36z" fill="#FFFFFF"/>
			<path d="M351.95,943.36c16.8,0,30-13.6,30-30.8c0-17.3-13.2-30.8-30-30.8c-17.6,0-31.5,13.5-31.5,30.8     S334.25,943.36,351.95,943.36z M351.95,896.76c8.4,0,15,6.9,15,15.8c0,8.9-6.6,15.8-15,15.8c-9.2,0-16.5-7-16.5-15.8     C335.45,903.66,342.65,896.76,351.95,896.76z" fill="#FFFFFF"/>
			<path d="M133.75,837.26v-62.1c0-4.1-3.4-7.5-7.5-7.5c-4.1,0-7.5,3.4-7.5,7.5v54.6H15.05v-54.6c0-4.1-3.4-7.5-7.5-7.5     s-7.5,3.4-7.5,7.5v62.1c0,4.1,3.4,7.5,7.5,7.5h118.7C130.35,844.76,133.75,841.46,133.75,837.26z" fill="#FFFFFF"/>
			<path d="M67.25,772.66c17,0,30.8-13.8,30.8-30.8s-13.8-30.8-30.8-30.8c-17.3,0-30.8,13.5-30.8,30.8S49.95,772.66,67.25,772.66z      M67.25,726.16c8.7,0,15.8,7,15.8,15.8c0,8.7-7.1,15.8-15.8,15.8c-9,0-15.8-6.8-15.8-15.8S58.25,726.16,67.25,726.16z" fill="#FFFFFF"/>
			<path d="M467.55,767.66c-4.1,0-7.5,3.4-7.5,7.5v54.6h-103.7v-54.6c0-4.1-3.4-7.5-7.5-7.5c-4.1,0-7.5,3.4-7.5,7.5v62.1     c0,4.1,3.4,7.5,7.5,7.5h118.7c4.1,0,7.5-3.3,7.5-7.5v-62.1C475.05,771.06,471.65,767.66,467.55,767.66z" fill="#FFFFFF"/>
			<path d="M377.75,741.86c0,17.3,13.5,30.8,30.8,30.8c17,0,30.8-13.8,30.8-30.8s-13.8-30.8-30.8-30.8     C391.25,711.06,377.75,724.56,377.75,741.86z M424.35,741.96c0,8.7-7.1,15.8-15.8,15.8c-9,0-15.8-6.8-15.8-15.8     s6.8-15.8,15.8-15.8C417.25,726.16,424.35,733.16,424.35,741.96z" fill="#FFFFFF"/>
			<path d="M183.65,597.06c-4.1,0-7.5,3.4-7.5,7.5v54.6H71.65v-54.6c0-4.1-3.4-7.5-7.5-7.5c-4.1,0-7.5,3.4-7.5,7.5v62.1     c0,4.1,3.4,7.5,7.5,7.5h119.5c4.1,0,7.5-3.4,7.5-7.5v-62.1C191.15,600.46,187.75,597.06,183.65,597.06z" fill="#FFFFFF"/>
			<path d="M123.95,601.96c17.2,0,30.7-13.5,30.8-30.8c0-17.3-13.5-30.8-30.8-30.8c-17,0-30.8,13.8-30.8,30.8     S106.95,601.96,123.95,601.96z M123.95,555.46c8.9,0,15.7,6.8,15.8,15.8c0,9-6.8,15.8-15.8,15.8c-8.7,0-15.8-7.1-15.8-15.8     S115.25,555.46,123.95,555.46z" fill="#FFFFFF"/>
			<path d="M292.25,674.16h118.7c4.1,0,7.5-3.4,7.5-7.5v-62.1c0-4.1-3.4-7.5-7.5-7.5c-4.1,0-7.5,3.4-7.5,7.5v54.6h-103.7v-54.6     c0-4.1-3.4-7.5-7.5-7.5c-4.1,0-7.5,3.4-7.5,7.5v62.1C284.75,670.76,288.15,674.16,292.25,674.16z" fill="#FFFFFF"/>
			<path d="M351.95,601.96c16.8,0,30-13.5,30-30.8s-13.2-30.8-30-30.8c-17.6,0-31.5,13.5-31.5,30.8S334.25,601.96,351.95,601.96z      M351.95,555.46c8.4,0,15,6.9,15,15.8c0,8.9-6.6,15.8-15,15.8c-9.2,0-16.5-7-16.5-15.8     C335.45,562.36,342.65,555.46,351.95,555.46z" fill="#FFFFFF"/>
			<path d="M270.85,797.06c-3-15.2-16.9-26.2-33-26.2h-0.8c-9,0-16.6-6.2-18.2-14.8c-1.7-8.9,2.7-17.1,10.9-20.4     c0.1-0.1,0.3-0.1,0.4-0.2c7.8-3.6,17-0.8,21.5,6.4c2.2,3.5,6.8,4.6,10.3,2.5c3.5-2.2,4.6-6.8,2.5-10.3     c-4.4-7.2-11.4-12.1-19.1-14.1v-22.3c0-4.1-3.4-7.5-7.5-7.5c-4.1,0-7.5,3.4-7.5,7.5v22c-2.1,0.5-4.3,1.2-6.3,2.1     c-14.7,6-22.9,21.1-19.9,37c2.9,15.7,16.8,27.1,33,27.1h0.8c8.8,0,16.6,6.1,18.2,14.1c1.7,9.2-2.8,17.9-10.9,21.1     c-0.1,0-0.1,0-0.2,0.1c-7.8,3.3-16.9,0.3-21.8-7.2c-2.2-3.5-6.9-4.5-10.4-2.3s-4.5,6.9-2.3,10.4c4.8,7.4,11.9,12.4,19.8,14.4     v21.8c0,4.1,3.4,7.5,7.5,7.5s7.5-3.4,7.5-7.5v-21.6c1.8-0.4,3.7-1,5.5-1.7C265.55,829.06,273.95,813.16,270.85,797.06     L270.85,797.06z" fill="#FFFFFF"/>
		</g>
	</g>
</g>
<g>
</g>
<g>
</g>
<g>
</g>
<g>
</g>
<g>
</g>
<g>
</g>
<g>
</g>
<g>
</g>
<g>
</g>
<g>
</g>
<g>
</g>
<g>
</g>
<g>
</g>
<g>
</g>
<g>
</g>
</svg>
